<?xml version="1.0" encoding="UTF-8" standalone="no"?>
<svg
   xmlns:dc="http://purl.org/dc/elements/1.1/"
   xmlns:cc="http://creativecommons.org/ns#"
   xmlns:rdf="http://www.w3.org/1999/02/22-rdf-syntax-ns#"
   xmlns:svg="http://www.w3.org/2000/svg"
   xmlns="http://www.w3.org/2000/svg"
   viewBox="0 0 53.333332 53.333332"
   height="53.333332"
   width="53.333332"
   xml:space="preserve"
   id="svg2"
   version="1.1"><metadata
     id="metadata8"><rdf:RDF><cc:Work
         rdf:about=""><dc:format>image/svg+xml</dc:format><dc:type
           rdf:resource="http://purl.org/dc/dcmitype/StillImage" /></cc:Work></rdf:RDF></metadata><defs
     id="defs6" /><g
     transform="matrix(1.3333333,0,0,-1.3333333,0,53.333333)"
     id="g10"><g
       transform="translate(3.213715,24.356934)"
       id="g12"><path
         id="path14"
         style="fill:#0962e8;fill-opacity:1;fill-rule:nonzero;stroke:none"
         d="m 5.714292,0.500023 c 3.432059,0 6.21425,2.78219 6.21425,6.214249 h -1 c 0,-2.879774 -2.334475,-5.214249 -5.21425,-5.214249 z m 6.21425,6.214249 c 0,3.432079 -2.782184,6.214317 -6.21425,6.214317 v -1 c 2.879768,0 5.21425,-2.334511 5.21425,-5.214317 z m -6.21425,6.214317 C 2.282223,12.928589 -0.5,10.146355 -0.5,6.714272 h 1 c 0,2.879802 2.334511,5.214317 5.214292,5.214317 z M -0.5,6.714272 c 0,-3.432063 2.782229,-6.214249 6.214292,-6.214249 v 1 C 2.834505,1.500023 0.5,3.834503 0.5,6.714272 Z" /></g><g
       transform="translate(20.356415,7.214233)"
       id="g16"><path
         id="path18"
         style="fill:#0962e8;fill-opacity:1;fill-rule:nonzero;stroke:none"
         d="m 5.714334,0.500004 c 3.432065,0 6.214249,2.782281 6.214249,6.214251 h -1 c 0,-2.879696 -2.334479,-5.214251 -5.214249,-5.214251 z m 6.214249,6.214251 c 0,3.432049 -2.78218,6.214334 -6.214249,6.214334 v -1 c 2.879766,0 5.214249,-2.33455 5.214249,-5.214334 z M 5.714334,12.928589 C 2.282275,12.928589 -0.5,10.146315 -0.5,6.714255 h 1 c 0,2.879774 2.33456,5.214334 5.214334,5.214334 z M -0.5,6.714255 c 0,-3.43198 2.78228,-6.214251 6.214334,-6.214251 v 1 C 2.834555,1.500004 0.5,3.834569 0.5,6.714255 Z" /></g><g
       transform="translate(0.833344,4.808716)"
       id="g20"><path
         id="path22"
         style="fill:#0962e8;fill-opacity:1;fill-rule:nonzero;stroke:none"
         d="m 16.666666,0.524616 c 0.276142,0 0.5,0.223858 0.5,0.5 0,0.276142 -0.223858,0.5 -0.5,0.5 z M 0,17.691284 l 0.223612,0.44721 c -0.154995,0.0775 -0.339066,0.06922 -0.486475,-0.02188 C -0.410273,18.025509 -0.5,17.864574 -0.5,17.691284 Z m 5.331905,-3.225045 c 0.246988,-0.123497 0.547325,-0.02339 0.670823,0.223599 0.123497,0.246989 0.023388,0.547326 -0.2236,0.670824 z M 16.666666,1.524616 C 7.738075,1.524616 0.5,8.762676 0.5,17.691284 h -1 C -0.5,8.210391 7.185791,0.524616 16.666666,0.524616 Z m -16.890278,15.719458 5.555517,-2.777835 0.447223,0.894423 -5.555516,2.777832 z" /></g><g
       transform="translate(17.5,21.47522)"
       id="g24"><path
         id="path26"
         style="fill:#0962e8;fill-opacity:1;fill-rule:nonzero;stroke:none"
         d="m 0,18.191406 c -0.276142,0 -0.5,-0.223858 -0.5,-0.5 0,-0.276142 0.223858,-0.5 0.5,-0.5 z M 16.666668,1.02474 16.443064,0.577524 c 0.154993,-0.077495 0.339063,-0.069212 0.486471,0.021891 0.147407,0.091104 0.237133,0.252037 0.237133,0.425325 z M 11.334689,4.249704 C 11.087699,4.373198 10.787363,4.273084 10.66387,4.026093 10.540377,3.779103 10.64049,3.478767 10.887481,3.355275 Z M 0,17.191406 c 8.928609,0 16.166668,-7.238025 16.166668,-16.166666 h 1 C 17.166668,10.505667 9.480892,18.191406 0,18.191406 Z M 16.890272,1.471954 11.334689,4.249704 10.887481,3.355275 16.443064,0.577524 Z" /></g></g></svg>