<?xml version="1.0" encoding="UTF-8" standalone="no"?>
<svg
   xmlns:dc="http://purl.org/dc/elements/1.1/"
   xmlns:cc="http://creativecommons.org/ns#"
   xmlns:rdf="http://www.w3.org/1999/02/22-rdf-syntax-ns#"
   xmlns:svg="http://www.w3.org/2000/svg"
   xmlns="http://www.w3.org/2000/svg"
   viewBox="0 0 53.333332 54.4445"
   height="54.4445"
   width="53.333332"
   xml:space="preserve"
   id="svg2"
   version="1.1"><metadata
     id="metadata8"><rdf:RDF><cc:Work
         rdf:about=""><dc:format>image/svg+xml</dc:format><dc:type
           rdf:resource="http://purl.org/dc/dcmitype/StillImage" /></cc:Work></rdf:RDF></metadata><defs
     id="defs6" /><g
     transform="matrix(1.3333333,0,0,-1.3333333,0,54.444499)"
     id="g10"><g
       transform="translate(11.666687,27.333374)"
       id="g12"><path
         id="path14"
         style="fill:#0962e8;fill-opacity:1;fill-rule:nonzero;stroke:none"
         d="m 5.833333,0.499959 c 3.497809,0 6.333334,2.835525 6.333334,6.333333 h -1 c 0,-2.945524 -2.387809,-5.333333 -5.333334,-5.333333 z m 6.333334,6.333333 c 0,3.497801 -2.835524,6.333334 -6.333334,6.333334 v -1 c 2.945524,0 5.333334,-2.387817 5.333334,-5.333334 z M 5.833333,13.166626 C 2.335524,13.166626 -0.5,10.331093 -0.5,6.833292 h 1 c 0,2.945517 2.38781,5.333334 5.333333,5.333334 z M -0.5,6.833292 c 0,-3.497808 2.835525,-6.333333 6.333333,-6.333333 v 1 C 2.887809,1.499959 0.5,3.887768 0.5,6.833292 Z" /></g><g
       transform="translate(0.833313,8.166626)"
       id="g16"><path
         id="path18"
         style="fill:#0962e8;fill-opacity:1;fill-rule:nonzero;stroke:none"
         d="m -0.5,1.000042 c 0,-0.276142 0.223858,-0.5 0.5,-0.5 0.276142,0 0.5,0.223858 0.5,0.5 z M 15,13.833374 c 0.276142,0 0.5,0.223858 0.5,0.5 0,0.276142 -0.223858,0.5 -0.5,0.5 z M 0.5,1.000042 c 0,7.033953 6.4349,12.833332 14.5,12.833332 v 1 c -8.503401,0 -15.5,-6.139619 -15.5,-13.833332 z" /></g><g
       transform="translate(20.833313,7.322144)"
       id="g20"><path
         id="path22"
         style="fill:#0962e8;fill-opacity:1;fill-rule:nonzero;stroke:none"
         d="M 5.833334,1.011192 5.652785,0.544929 c 0.116164,-0.044981 0.244934,-0.044981 0.361098,0 z m 0,10.078164 -0.427932,-0.2586 c 0.090546,-0.149834 0.252863,-0.2414 0.427932,-0.2414 0.175069,0 0.337387,0.09157 0.427932,0.2414 z m -2.625,2.0885 C 1.091247,13.177856 -0.5,11.205667 -0.5,8.93919 h 1 c 0,1.863189 1.281587,3.238666 2.708334,3.238666 z M -0.5,8.93919 C -0.5,6.904928 0.526672,5.009117 1.770026,3.545922 3.012019,2.084328 4.535193,0.977688 5.652785,0.544929 L 6.013883,1.477457 C 5.089808,1.83528 3.696315,2.823348 2.532058,4.193461 1.369161,5.561974 0.5,7.23487 0.5,8.93919 Z M 6.013883,0.544929 c 1.117592,0.432759 2.640766,1.539399 3.88276,3.000993 1.243353,1.463195 2.270025,3.359006 2.270025,5.393268 h -1 c 0,-1.70432 -0.869162,-3.377216 -2.032058,-4.745729 C 7.970353,2.823348 6.57686,1.83528 5.652785,1.477457 Z m 6.152785,8.394261 c 0,2.266477 -1.591245,4.238666 -3.708332,4.238666 v -1 c 1.426746,0 2.708332,-1.375476 2.708332,-3.238666 z m -3.708332,4.238666 c -1.289796,0 -2.398268,-0.746558 -3.052934,-1.829899 l 0.855864,-0.517201 c 0.506501,0.838159 1.316698,1.3471 2.19707,1.3471 z m -2.19707,-1.829899 c -0.654665,1.08334 -1.763137,1.829899 -3.052932,1.829899 v -1 c 0.880372,0 1.690567,-0.508941 2.197068,-1.3471 z" /></g></g></svg>