<?xml version="1.0" encoding="UTF-8" standalone="no"?>
<svg
   xmlns:dc="http://purl.org/dc/elements/1.1/"
   xmlns:cc="http://creativecommons.org/ns#"
   xmlns:rdf="http://www.w3.org/1999/02/22-rdf-syntax-ns#"
   xmlns:svg="http://www.w3.org/2000/svg"
   xmlns="http://www.w3.org/2000/svg"
   viewBox="0 0 53.333332 50.133301"
   height="50.133301"
   width="53.333332"
   xml:space="preserve"
   id="svg2"
   version="1.1"><metadata
     id="metadata8"><rdf:RDF><cc:Work
         rdf:about=""><dc:format>image/svg+xml</dc:format><dc:type
           rdf:resource="http://purl.org/dc/dcmitype/StillImage" /></cc:Work></rdf:RDF></metadata><defs
     id="defs6" /><g
     transform="matrix(1.3333333,0,0,-1.3333333,0,50.133301)"
     id="g10"><g
       transform="translate(12.799988,27.799927)"
       id="g12"><path
         id="path14"
         style="fill:#0962e8;fill-opacity:1;fill-rule:nonzero;stroke:none"
         d="m 4,0.5 c 2.485262,0 4.5,2.014738 4.5,4.5 h -1 C 7.5,3.067022 5.932978,1.5 4,1.5 Z M 8.5,5 C 8.5,7.48528 6.485261,9.5 4,9.5 v -1 C 5.932979,8.5 7.5,6.932992 7.5,5 Z M 4,9.5 C 1.514739,9.5 -0.5,7.48528 -0.5,5 h 1 C 0.5,6.932992 2.067021,8.5 4,8.5 Z M -0.5,5 C -0.5,2.514738 1.514738,0.5 4,0.5 v 1 C 2.067022,1.5 0.5,3.067022 0.5,5 Z" /></g><g
       transform="translate(7.200012,15.799438)"
       id="g16"><path
         id="path18"
         style="fill:#0962e8;fill-opacity:1;fill-rule:nonzero;stroke:none"
         d="m 5.77272,8.169762 -0.048983,0.497594 -2.5e-5,-2e-6 z m -5.74192,-5.74192 -0.497592,0.049009 -3e-6,-2.6e-5 z M 0,1.000563 h -0.5 c 0,-0.276143 0.223858,-0.5 0.5,-0.5 z m 19.200001,0 v -0.5 c 0.276142,0 0.5,0.223857 0.5,0.5 z m -0.0308,1.427279 0.497595,0.048983 -2e-6,2.6e-5 z m -5.74192,5.74192 0.04901,0.497592 -2.6e-5,2e-6 -0.04898,-0.497594 z M 12,8.700562 H 7.2 v -1 H 12 Z m -4.8,0 c -0.731068,0 -1.132791,6.06e-4 -1.476263,-0.033206 L 5.821704,7.672167 C 6.103992,7.699955 6.445148,7.700562 7.2,7.700562 Z M 5.723712,8.667354 C 2.447683,8.344693 -0.144132,5.752879 -0.466792,2.476851 L 0.528392,2.378833 C 0.804291,5.180084 3.020477,7.39627 5.821729,7.672169 Z M -0.466795,2.476825 C -0.500606,2.133354 -0.5,1.73163 -0.5,1.000563 h 1 c 0,0.754851 6.06e-4,1.096007 0.028395,1.378296 z M 0,0.500563 h 19.200001 v 1 H 0 Z m 19.700001,0.5 c 0,0.731069 6.04e-4,1.132791 -0.03321,1.476262 l -0.99519,-0.097966 c 0.02779,-0.282289 0.0284,-0.623446 0.0284,-1.378296 z m -0.03321,1.476288 c -0.32266,3.276028 -2.914474,5.867842 -6.190502,6.190503 L 13.378271,7.672169 C 16.179523,7.39627 18.395708,5.180084 18.671606,2.378833 l 0.995186,0.098018 z M 13.476263,8.667356 C 13.132792,8.701168 12.731069,8.700562 12,8.700562 v -1 c 0.754852,0 1.096008,-6.07e-4 1.378297,-0.028395 l 0.09797,0.995189 z" /></g><g
       transform="translate(0.799988,7.729614)"
       id="g20"><path
         id="path22"
         style="fill:#0962e8;fill-opacity:1;fill-rule:nonzero;stroke:none"
         d="m 29.870642,11.263438 c -0.232191,0.149471 -0.54159,0.08241 -0.691061,-0.149779 -0.149472,-0.232192 -0.08241,-0.541591 0.149778,-0.691062 z M 2.670638,10.422595 c 0.232193,0.149469 0.299254,0.458868 0.149784,0.691061 -0.149469,0.232193 -0.458867,0.299254 -0.69106,0.149784 z m 26.658721,2e-6 C 30.798218,9.477036 31.5,8.452707 31.5,7.469978 h 1 c 0,1.492951 -1.055496,2.780302 -2.629358,3.79346 z M 31.5,7.469978 C 31.5,6.768101 31.146446,6.048862 30.399088,5.34208 29.650673,4.634298 28.540867,3.973867 27.128016,3.408727 24.305084,2.279557 20.370955,1.569979 16,1.569979 v -1 c 4.465607,0 8.531475,0.723101 11.499405,1.910271 1.482578,0.59303 2.715917,1.311684 3.58679,2.135275 C 31.958124,5.440115 32.5,6.404536 32.5,7.469978 Z M 16,1.569979 c -4.370955,0 -8.305085,0.709578 -11.128015,1.838748 C 3.459133,3.973867 2.349328,4.634298 1.600913,5.34208 0.853555,6.048862 0.5,6.768101 0.5,7.469978 h -1 C -0.5,6.404536 0.041875,5.440115 0.913805,4.615525 1.784678,3.791934 3.018017,3.07328 4.500595,2.48025 7.468524,1.29308 11.534394,0.569979 16,0.569979 Z M 0.5,7.469978 c 0,0.982732 0.701763,2.007058 2.170638,2.952617 L 2.129362,11.26344 C 0.555469,10.250278 -0.5,8.962927 -0.5,7.469978 Z" /></g><g
       transform="translate(12.799988,3.702271)"
       id="g24"><path
         id="path26"
         style="fill:#0962e8;fill-opacity:1;fill-rule:nonzero;stroke:none"
         d="m 0.353553,9.45121 c -0.195262,0.195262 -0.511844,0.195262 -0.707106,0 -0.195263,-0.195263 -0.195263,-0.511845 0,-0.707108 z M 4,5.097655 4.353553,4.744102 c 0.195263,0.195262 0.195263,0.511844 0,0.707107 z M -0.353553,1.451208 c -0.195263,-0.195262 -0.195263,-0.511845 0,-0.707107 0.195262,-0.195262 0.511844,-0.195262 0.707106,0 z m 0,7.292894 4,-4 0.707106,0.707107 -4,4.000001 z m 4,-3.292893 -4,-4.000001 0.707106,-0.707107 4,4.000001 z" /></g></g></svg>