<svg width="40.000000" height="40.833374" viewBox="0 0 40 40.8334" fill="none" xmlns="http://www.w3.org/2000/svg" xmlns:xlink="http://www.w3.org/1999/xlink">
	<desc>
			Created with Pixso.
	</desc>
	<defs>
		<clipPath id="clip1_52">
			<rect id="__4" rx="0.000000" width="39.000000" height="39.833336" transform="translate(0.500000 0.500000)" fill="white" fill-opacity="0"/>
		</clipPath>
	</defs>
	<rect id="__4" rx="0.000000" width="39.000000" height="39.833336" transform="translate(0.500000 0.500000)" fill="#FFFFFF" fill-opacity="0"/>
	<g clip-path="url(#clip1_52)">
		<path id="Vector" d="M23.33 6.66C23.33 3.44 20.72 0.83 17.5 0.83C14.27 0.83 11.66 3.44 11.66 6.66C11.66 9.88 14.27 12.5 17.5 12.5C20.72 12.5 23.33 9.88 23.33 6.66Z" stroke="#0962E8" stroke-opacity="1.000000" stroke-width="1.000000" stroke-linejoin="round"/>
		<path id="Vector" d="M0.83 31.66C0.83 24.3 7.54 18.33 15.83 18.33" stroke="#0962E8" stroke-opacity="1.000000" stroke-width="1.000000" stroke-linejoin="round" stroke-linecap="round"/>
		<path id="Vector" d="M20.83 24.57C20.83 28.31 24.62 31.7 26.66 32.5C28.7 31.7 32.5 28.31 32.5 24.57C32.5 22.5 31.06 20.83 29.29 20.83C28.2 20.83 27.24 21.46 26.66 22.42C26.08 21.46 25.12 20.83 24.04 20.83C22.26 20.83 20.83 22.5 20.83 24.57Z" stroke="#0962E8" stroke-opacity="1.000000" stroke-width="1.000000" stroke-linejoin="round"/>
	</g>
</svg>
