<svg width="40.000000" height="37.599976" viewBox="0 0 40 37.6" fill="none" xmlns="http://www.w3.org/2000/svg" xmlns:xlink="http://www.w3.org/1999/xlink">
	<desc>
			Created with Pixso.
	</desc>
	<defs>
		<clipPath id="clip1_57">
			<rect id="__5" rx="0.000000" width="39.000000" height="36.599998" transform="translate(0.500000 0.500000)" fill="white" fill-opacity="0"/>
		</clipPath>
	</defs>
	<rect id="__5" rx="0.000000" width="39.000000" height="36.599998" transform="translate(0.500000 0.500000)" fill="#FFFFFF" fill-opacity="0"/>
	<g clip-path="url(#clip1_57)">
		<path id="Vector" d="M20.8 4.8C20.8 2.59 19 0.8 16.79 0.8C14.59 0.8 12.8 2.59 12.8 4.8C12.8 7 14.59 8.8 16.79 8.8C19 8.8 20.8 7 20.8 4.8Z" stroke="#0962E8" stroke-opacity="1.000000" stroke-width="1.000000" stroke-linejoin="round"/>
		<path id="Vector" d="M14.4 13.6C13.65 13.6 13.28 13.6 12.97 13.63C9.93 13.93 7.53 16.33 7.23 19.37C7.2 19.68 7.2 20.05 7.2 20.79L26.4 20.79C26.4 20.05 26.4 19.68 26.36 19.37C26.06 16.33 23.66 13.93 20.62 13.63C20.31 13.6 19.94 13.6 19.2 13.6L14.4 13.6Z" stroke="#0962E8" stroke-opacity="1.000000" stroke-width="1.000000" stroke-linejoin="round"/>
		<path id="Vector" d="M30.4 19.02C31.92 20 32.8 21.16 32.8 22.4C32.8 25.93 25.63 28.8 16.79 28.8C7.96 28.8 0.79 25.93 0.79 22.4C0.79 21.16 1.67 20 3.2 19.02" stroke="#0962E8" stroke-opacity="1.000000" stroke-width="1.000000" stroke-linejoin="round" stroke-linecap="round"/>
		<path id="Vector" d="M12.8 24.8L16.79 28.8L12.8 32.8" stroke="#0962E8" stroke-opacity="1.000000" stroke-width="1.000000" stroke-linejoin="round" stroke-linecap="round"/>
	</g>
</svg>
