<svg width="40.000000" height="40.000000" viewBox="0 0 40 40" fill="none" xmlns="http://www.w3.org/2000/svg" xmlns:xlink="http://www.w3.org/1999/xlink">
	<desc>
			Created with Pixso.
	</desc>
	<defs>
		<clipPath id="clip1_42">
			<rect id="__7" rx="0.000000" width="39.000000" height="39.000000" transform="translate(0.500000 0.500000)" fill="white" fill-opacity="0"/>
		</clipPath>
	</defs>
	<rect id="__7" rx="0.000000" width="39.000000" height="39.000000" transform="translate(0.500000 0.500000)" fill="#FFFFFF" fill-opacity="0"/>
	<g clip-path="url(#clip1_42)">
		<path id="Vector" d="M17.5 5C17.5 2.69 13.76 0.83 9.16 0.83C4.56 0.83 0.83 2.69 0.83 5C0.83 7.3 4.56 9.16 9.16 9.16C13.76 9.16 17.5 7.3 17.5 5Z" stroke="#0962E8" stroke-opacity="1.000000" stroke-width="1.000000" stroke-linejoin="round"/>
		<path id="Vector" d="M0.83 5C0.83 5 0.83 8.53 0.83 10.83C0.83 13.13 4.56 15 9.16 15C13.76 15 17.5 13.13 17.5 10.83C17.5 9.47 17.5 5 17.5 5" stroke="#0962E8" stroke-opacity="1.000000" stroke-width="1.000000" stroke-linejoin="round" stroke-linecap="round"/>
		<path id="Vector" d="M0.83 10.83C0.83 10.83 0.83 14.36 0.83 16.66C0.83 18.96 4.56 20.83 9.16 20.83C13.76 20.83 17.5 18.96 17.5 16.66C17.5 15.3 17.5 10.83 17.5 10.83" stroke="#0962E8" stroke-opacity="1.000000" stroke-width="1.000000" stroke-linejoin="round" stroke-linecap="round"/>
		<path id="Vector" d="M0.83 16.66C0.83 16.66 0.83 20.19 0.83 22.5C0.83 24.8 4.56 26.66 9.16 26.66C13.76 26.66 17.5 24.8 17.5 22.5C17.5 21.13 17.5 16.66 17.5 16.66" stroke="#0962E8" stroke-opacity="1.000000" stroke-width="1.000000" stroke-linejoin="round" stroke-linecap="round"/>
		<path id="Vector" d="M0.83 22.5C0.83 22.5 0.83 26.03 0.83 28.33C0.83 30.63 4.56 32.5 9.16 32.5C13.76 32.5 17.5 30.63 17.5 28.33C17.5 26.97 17.5 22.5 17.5 22.5" stroke="#0962E8" stroke-opacity="1.000000" stroke-width="1.000000" stroke-linejoin="round" stroke-linecap="round"/>
		<path id="Vector" d="M34.16 16.66C34.16 14.36 30.43 12.5 25.83 12.5C21.23 12.5 17.5 14.36 17.5 16.66C17.5 18.96 21.23 20.83 25.83 20.83C30.43 20.83 34.16 18.96 34.16 16.66Z" stroke="#0962E8" stroke-opacity="1.000000" stroke-width="1.000000" stroke-linejoin="round"/>
		<path id="Vector" d="M17.5 16.66C17.5 16.66 17.5 20.19 17.5 22.5C17.5 24.8 21.23 26.66 25.83 26.66C30.43 26.66 34.16 24.8 34.16 22.5C34.16 21.13 34.16 16.66 34.16 16.66" stroke="#0962E8" stroke-opacity="1.000000" stroke-width="1.000000" stroke-linejoin="round" stroke-linecap="round"/>
		<path id="Vector" d="M17.5 22.5C17.5 22.5 17.5 26.03 17.5 28.33C17.5 30.63 21.23 32.5 25.83 32.5C30.43 32.5 34.16 30.63 34.16 28.33C34.16 26.97 34.16 22.5 34.16 22.5" stroke="#0962E8" stroke-opacity="1.000000" stroke-width="1.000000" stroke-linejoin="round" stroke-linecap="round"/>
	</g>
</svg>
